<svg xmlns="http://www.w3.org/2000/svg" xmlns:xlink="http://www.w3.org/1999/xlink" viewBox="0 0 2250 2250"><defs><style>.cls-1{fill:url(#Nouvelle_nuance_de_dégradé_1);}.cls-2{fill:none;stroke:#fff;stroke-miterlimit:10;stroke-width:12px;}.cls-3{fill:#fff;}.cls-4{fill:#e12a40;}</style><linearGradient id="Nouvelle_nuance_de_dégradé_1" x1="-131.34" y1="246.47" x2="2378.01" y2="2003.53" gradientUnits="userSpaceOnUse"><stop offset="0.25" stop-color="#2e325d"/><stop offset="0.75" stop-color="#e24145"/></linearGradient></defs><title>LoGo final SVG</title><g id="fond"><rect class="cls-1" x="-1.67" width="2250" height="2250" rx="89.5" ry="89.5"/></g><g id="Ecriture"><line class="cls-2" x1="130.83" y1="1653.92" x2="2119.17" y2="1653.92"/><path class="cls-3" d="M497.49,1833.31c-3.36,7.56-7.14,15.12-10.92,23.1H400.89c8.4-17.64,16.8-35.7,25.2-53.34H291.69l31.5,17.64-96.18,205c-9.24,20.16,2.1,36.12,25.62,36.12h9.66c23.52,0,50-16,59.22-36.12l8.4-17.22h85.68c-2.94,6.72-6.72,14.28-10.92,23.1-22.68,48.3-86.94,87.78-144.06,87.78H200.55c-56.7,0-84.42-39.48-61.74-87.78,32.76-70.56,78.12-167.58,107.1-228.48L177.45,1746h258.3C492.45,1746,520.17,1785,497.49,1833.31Z"/><path class="cls-3" d="M509.67,1936.63c53.76,18.9,37.38,14.28,75.6,21.42-39.48,83.16-75.6,159.18-76.44,161.28H380.31S432,2100,470.19,2020.21C470.19,2020.21,488.25,1981.57,509.67,1936.63ZM917.07,1746S862.89,1769.47,815.85,1869c-5.46,11.34-10.92,23.1-16.38,34.86L772.17,1961c-15.54,33.18-27.3,57.54-27.72,59.22-37.8,79.8-3.78,99.12-3.78,99.12H655s-34-19.32,3.36-99.12c4.2-8.82,15.12-31.5,28.14-59.22h-29.4c-118.86-23.1-71.4-10.08-207.06-57.12h75.18c24.36-51.66,47.88-100.8,47.88-100.8l-68-57.12h180.6c-.84,1.68-58,121.8-74.76,157.92H713.37c20.58-42.84,39.9-83.58,44.52-93.66,12.18-25.61,45.78-64.26,71.4-64.26Z"/><path class="cls-3" d="M950.67,1971.07l20.16,4.2c-34.86,33.18-60.9,58-64.68,61.74a129.15,129.15,0,0,0-29,39.06L857,2119.33H761.67l10.92-23.94c12.6-26,31.5-52.08,55.86-75.18,8.4-8,33.6-32.34,66.36-63.84ZM1290.87,1746s-53.76,23.52-100.38,123.06l-71,151.2c-37.38,79.8-3.36,99.12-3.36,99.12H987.63l64.68-138.6-88.62-18.9L815,1923.61H929.25c52.08-49.56,126-120.54,126-120.54L986.79,1746h165.06l-4.62,31.92,41.58-31.92Zm-167.58,83.16c-30.66,29.4-65.52,63-98.7,94.5h54.6Z"/><path class="cls-3" d="M1712.55,1746s-47.46,9.66-94.5,109.2h-85.68l10.5-22.68c7.56-16.37-1.68-29.4-21-29.4H1398.81l55,17.64-9.66,21c-5,10.92-3.78,21,3.78,27.3l103.32,87.36c8.4,7.14,10.08,18.48,4.2,30.66l-15.54,33.18c-37.38,79.8-3.78,99.12-3.78,99.12H1301c-42,0-61.74-29.82-42.84-65.94l-68-57.12h181l-17.22,36.12c-8,16.38,1.68,29.4,20.58,29.4h123.48l-52.5-23.1,9.66-20.58c5-11.34,3.78-21.42-3.78-27.72L1348,1903c-8.4-7.14-10.08-18.48-4.2-30.66l32.76-69.3-68-57.12h309.54l-6.3,31.92,23.94-31.92Z"/><path class="cls-3" d="M2119.11,1746s-45.78,6.31-92.4,105.84c0,0-13-48.72-63-48.72h-123.9l32.34,18.48-38.64,82.32h137.76L1873,1961H1765.47l31.92,18.48-39.06,82.32h94.5l25.2-53.34h76.86l-5.46,11.76c-37.38,79.8-3.36,99.12-3.36,99.12H1603.35s45.78-6.3,92.4-105.84c5.46-12.18,94.08-198.66,99.54-210.42L1726.83,1746Z"/></g><g id="v1"><path class="cls-3" d="M1706.1,808.4c7.87-7.81,22.32-7.59,33.89-3.95,47.81,15.07,94.84,32.7,141.64,50.74,8.1,3.12,15.44,11.74,20.12,19.61,26.56,44.64,39.87,69,66.08,113.86,11.12,19,10.62,37.28-8.74,48.35-20,11.44-37-2.85-47.53-21-22-38.13-29.64-52.72-52.62-90.25a55.07,55.07,0,0,0-24.72-20.84c-37.53-15.18-75.91-28.22-113.73-42.68C1697.79,853.51,1690.37,834.69,1706.1,808.4Z"/><path class="cls-3" d="M1632.47,1147.25a1.93,1.93,0,0,1,.76-3.32c32.57-8.82,58.62-17.1,85.26-22.5,44.5-9,69.32-35.91,74.45-79.79,4.56-38.91,6.19-78.16,8.87-117.28,1.21-17.65-5.94-27.28-24.54-32-28.53-7.27-35.08-8.68-62.39-19.75-22.09-8.94-34-30.68-26.21-54.24,7.17-21.57,28.65-33.28,49.15-25l-22.34-6.76c1.18.38,15.41,5.32,74.08,21,2.18.58,4.77-1.15,4.28-3.35-2.33-10.42-4.38-15.47-8.33-27.13-1.6-4.71-9-7.67-13.59-9.59-11.94-5-49.71-19.08-78.56-19.82h-.28c-37.69,3.54-59.64,38.69-55.73,85.93,4.14,50.06,11.16,100,13.51,150.08,2.32,49.41.43,49.42-48.24,62.33-30.64,8.13-61.63,15.23-91.7,25.1-43.75,14.37-54,59-19.39,89.7,74.37,65.93,150,130.47,225.83,194.67,24.35,20.61,55.8,17.67,73.28-3.73,18.7-22.88,16.9-51.54-7.33-73.2C1735.38,1235.73,1686.41,1194.05,1632.47,1147.25Z"/><path class="cls-3" d="M1734.76,675.6c18.9-48.13-3.18-99.61-50.84-118.57a91.35,91.35,0,0,0-119,51.16c-18.57,46.23,5.08,101.34,51.28,119.53C1663.33,746.27,1716.14,723.06,1734.76,675.6Z"/><path class="cls-3" d="M1516.86,1198.51c-36.95-21.66-66.27-63.25-57.19-79.5,0,0-124.35,121.55-177.05,179.31-18.37,20.14-14.4,46,6.8,64.34,22.26,19.22,46.94,17.73,67.6-3C1407.87,1308.85,1462.3,1254.42,1516.86,1198.51Z"/><path class="cls-4" d="M797.83,973.29c3.22,0,3.22-5,0-5s-3.22,5,0,5Z"/><path class="cls-3" d="M747.2,1032.6l67.42-72.67c46.26,40.51,92,80.16,137.09,120.47,6.49,5.79,10.84,14.39,15,22.3q50.65,95.91,100.81,192.09c18,34.58,12.22,62.43-15.6,77.29-27.42,14.65-54.39,3.2-72.53-30.86-10.62-20-22.87-39.25-31.4-60.06-39.4-96.09-101.44-173.84-185.67-234.24C757.29,1043.31,753.21,1038.35,747.2,1032.6Z"/><path class="cls-3" d="M938.25,679.39c-50.11-.32-88.9-39.66-88.61-89.85.29-49.82,40.12-88.89,90.15-88.42,49.47.46,90,41.28,89.2,89.94C1028.22,640.94,988.38,679.72,938.25,679.39Z"/><path class="cls-3" d="M849.69,773.82c-23.41-3.37-39.1-16.21-37-42.25C815.08,703,834,692.78,859,696.46l32.8,4.86c-9.44-21.63-26.76-37.37-49-40.78C793.6,653,744,648.5,694.57,642.67c-21.47-2.54-34.31,7.25-40.44,27.53-12.56,41.54-25.51,82.95-38.11,124.48-6,19.69-2.9,37.36,18.43,44.33,22.25,7.27,36.18-4,42.65-25.76,8.5-28.6,18.16-56.87,25.86-85.67,4.13-15.45,11.92-20.74,27.21-17.27,10.92,2.49,22.11,3.82,36,6.13-26.81,64.78-50.91,126.09-93.49,177.93-18.1,22-35.65,44.35-15.75,75.75l-91.19,72.54c-39.46-37.8-76.6-73.51-113.9-109.05-25.9-24.69-56.34-27.08-77-6.37-21.9,21.92-19.07,52.47,7.88,78.49,40.37,39,81.14,77.59,121.58,116.53,40.6,39.09,53.65,41.41,101.59,11.32,87.67-55,160.71-126.11,222.49-208.77,5-6.67,48.45-108.44,63.49-144.88Q870.73,776.87,849.69,773.82Z"/><path class="cls-3" d="M1136.9,807.11C1043,793.89,949.07,780.5,855.1,767.57c-21.51-3-36-13.85-34.15-35.75,2-24,19.33-32.53,42.25-29.29q155.4,21.9,310.75,44.15c20.83,3,35.73,13.44,32.72,36.63-3.29,25.45-21.63,29.81-43.76,26.68-8.61-1.21-17.38-1.31-26.07-1.91Z"/><path class="cls-3" d="M1264.34,928.84h214.88l.12-8.18H1266.18Z"/><path class="cls-3" d="M1582.72,908.94c16-11,31.8-22.38,47.38-34-1.75-16.76-3.47-33.52-4.85-50.3a112.39,112.39,0,0,1,2.36-35.48c-17.1,12.7-33.69,26.15-50,39.85-13.57,11.42-23.71,11.46-37.74,2-30.11-20.37-60.72-40.08-91.93-58.71-17.61-10.51-36.44-9.37-47.73,9.46-10.74,17.9-6.48,35.95,11.53,47.64,42.51,27.59,84.86,55.6,129,80.39C1551.59,915.8,1572.8,915.71,1582.72,908.94Z"/><path class="cls-3" d="M1199.53,987.82h380.93l.21-8.18H1202.79Z"/><path class="cls-3" d="M1340.34,1040.43H1506l.1-8.18H1341.76Z"/><path class="cls-3" d="M368.3,746.56H580.22l.12-8.18H370.11Z"/><path class="cls-3" d="M274.85,805.55H559.78l.16-8.19H277.28Z"/><path class="cls-3" d="M443.63,687.58H608.35l.1-8.19H445Z"/><path class="cls-3" d="M425.63,858.91H590.35l.1-8.18H427Z"/></g></svg>